<?xml version="1.0" encoding="UTF-8" standalone="no"?>
<!DOCTYPE svg PUBLIC "-//W3C//DTD SVG 1.1//EN"
 "http://www.w3.org/Graphics/SVG/1.1/DTD/svg11.dtd">
<!-- Generated by graphviz version 13.1.0 (20250701.0955)
 -->
<!-- Title: C:/Users/Luke &#45; Home/source/repos/text&#45;to&#45;texture&#45;atlas/text&#45;to&#45;texture&#45;atlas/Font.cpp Pages: 1 -->
<svg width="707pt" height="188pt"
 viewBox="0.00 0.00 707.00 188.00" xmlns="http://www.w3.org/2000/svg" xmlns:xlink="http://www.w3.org/1999/xlink">
<g id="graph0" class="graph" transform="scale(1 1) rotate(0) translate(4 184)">
<title>C:/Users/Luke &#45; Home/source/repos/text&#45;to&#45;texture&#45;atlas/text&#45;to&#45;texture&#45;atlas/Font.cpp</title>
<!-- Node1 -->
<g id="Node000001" class="node">
<title>Node1</title>
<g id="a_Node000001"><a xlink:title=" ">
<polygon fill="#999999" stroke="#666666" points="360.25,-180 245.25,-180 245.25,-124 360.25,-124 360.25,-180"/>
<text xml:space="preserve" text-anchor="start" x="253.25" y="-166.5" font-family="Helvetica,sans-Serif" font-size="10.00">C:/Users/Luke &#45; Home</text>
<text xml:space="preserve" text-anchor="start" x="253.25" y="-154.5" font-family="Helvetica,sans-Serif" font-size="10.00">/source/repos/text&#45;to</text>
<text xml:space="preserve" text-anchor="start" x="253.25" y="-142.5" font-family="Helvetica,sans-Serif" font-size="10.00">&#45;texture&#45;atlas/text&#45;to</text>
<text xml:space="preserve" text-anchor="middle" x="302.75" y="-130.5" font-family="Helvetica,sans-Serif" font-size="10.00">&#45;texture&#45;atlas/Font.cpp</text>
</a>
</g>
</g>
<!-- Node2 -->
<g id="Node000002" class="node">
<title>Node2</title>
<g id="a_Node000002"><a xlink:href="_font_8hpp.html" target="_top" xlink:title=" ">
<polygon fill="white" stroke="#666666" points="157.88,-82 103.62,-82 103.62,-62 157.88,-62 157.88,-82"/>
<text xml:space="preserve" text-anchor="middle" x="130.75" y="-68.5" font-family="Helvetica,sans-Serif" font-size="10.00">Font.hpp</text>
</a>
</g>
</g>
<!-- Node1&#45;&gt;Node2 -->
<g id="edge1_Node000001_Node000002" class="edge">
<title>Node1&#45;&gt;Node2</title>
<g id="a_edge1_Node000001_Node000002"><a xlink:title=" ">
<path fill="none" stroke="#63b8ff" d="M245,-124.81C217.2,-112.2 184.96,-97.58 161.84,-87.1"/>
<polygon fill="#63b8ff" stroke="#63b8ff" points="163.52,-84.02 152.97,-83.07 160.63,-90.39 163.52,-84.02"/>
</a>
</g>
</g>
<!-- Node3 -->
<g id="Node000003" class="node">
<title>Node3</title>
<g id="a_Node000003"><a xlink:title=" ">
<polygon fill="#e0e0e0" stroke="#999999" points="53.5,-20 0,-20 0,0 53.5,0 53.5,-20"/>
<text xml:space="preserve" text-anchor="middle" x="26.75" y="-6.5" font-family="Helvetica,sans-Serif" font-size="10.00">iostream</text>
</a>
</g>
</g>
<!-- Node1&#45;&gt;Node3 -->
<g id="edge8_Node000001_Node000003" class="edge">
<title>Node1&#45;&gt;Node3</title>
<g id="a_edge8_Node000001_Node000003"><a xlink:title=" ">
<path fill="none" stroke="#63b8ff" d="M244.86,-142.32C200.99,-133.73 140.63,-117.46 94.75,-88 71.04,-72.78 50.69,-47.02 38.59,-29.52"/>
<polygon fill="#63b8ff" stroke="#63b8ff" points="41.76,-27.96 33.3,-21.58 35.93,-31.84 41.76,-27.96"/>
</a>
</g>
</g>
<!-- Node8 -->
<g id="Node000008" class="node">
<title>Node8</title>
<g id="a_Node000008"><a xlink:title=" ">
<polygon fill="#e0e0e0" stroke="#999999" points="231.62,-82 175.88,-82 175.88,-62 231.62,-62 231.62,-82"/>
<text xml:space="preserve" text-anchor="middle" x="203.75" y="-68.5" font-family="Helvetica,sans-Serif" font-size="10.00">algorithm</text>
</a>
</g>
</g>
<!-- Node1&#45;&gt;Node8 -->
<g id="edge7_Node000001_Node000008" class="edge">
<title>Node1&#45;&gt;Node8</title>
<g id="a_edge7_Node000001_Node000008"><a xlink:title=" ">
<path fill="none" stroke="#63b8ff" d="M267.85,-123.5C253.3,-112.04 236.9,-99.12 224.33,-89.21"/>
<polygon fill="#63b8ff" stroke="#63b8ff" points="226.77,-86.68 216.75,-83.24 222.44,-92.18 226.77,-86.68"/>
</a>
</g>
</g>
<!-- Node9 -->
<g id="Node000009" class="node">
<title>Node9</title>
<g id="a_Node000009"><a xlink:title=" ">
<polygon fill="#e0e0e0" stroke="#999999" points="295.38,-82 250.12,-82 250.12,-62 295.38,-62 295.38,-82"/>
<text xml:space="preserve" text-anchor="middle" x="272.75" y="-68.5" font-family="Helvetica,sans-Serif" font-size="10.00">ranges</text>
</a>
</g>
</g>
<!-- Node1&#45;&gt;Node9 -->
<g id="edge9_Node000001_Node000009" class="edge">
<title>Node1&#45;&gt;Node9</title>
<g id="a_edge9_Node000001_Node000009"><a xlink:title=" ">
<path fill="none" stroke="#63b8ff" d="M292.26,-123.72C288.36,-113.59 284.02,-102.29 280.42,-92.94"/>
<polygon fill="#63b8ff" stroke="#63b8ff" points="283.75,-91.85 276.89,-83.77 277.22,-94.36 283.75,-91.85"/>
</a>
</g>
</g>
<!-- Node10 -->
<g id="Node000010" class="node">
<title>Node10</title>
<g id="a_Node000010"><a xlink:title=" ">
<polygon fill="#e0e0e0" stroke="#999999" points="352.38,-82 313.12,-82 313.12,-62 352.38,-62 352.38,-82"/>
<text xml:space="preserve" text-anchor="middle" x="332.75" y="-68.5" font-family="Helvetica,sans-Serif" font-size="10.00">utility</text>
</a>
</g>
</g>
<!-- Node1&#45;&gt;Node10 -->
<g id="edge10_Node000001_Node000010" class="edge">
<title>Node1&#45;&gt;Node10</title>
<g id="a_edge10_Node000001_Node000010"><a xlink:title=" ">
<path fill="none" stroke="#63b8ff" d="M313.24,-123.72C317.14,-113.59 321.48,-102.29 325.08,-92.94"/>
<polygon fill="#63b8ff" stroke="#63b8ff" points="328.28,-94.36 328.61,-83.77 321.75,-91.85 328.28,-94.36"/>
</a>
</g>
</g>
<!-- Node11 -->
<g id="Node000011" class="node">
<title>Node11</title>
<g id="a_Node000011"><a xlink:title=" ">
<polygon fill="#e0e0e0" stroke="#999999" points="477.5,-88 370,-88 370,-56 477.5,-56 477.5,-88"/>
<text xml:space="preserve" text-anchor="start" x="378" y="-74.5" font-family="Helvetica,sans-Serif" font-size="10.00">texture&#45;operations</text>
<text xml:space="preserve" text-anchor="middle" x="423.75" y="-62.5" font-family="Helvetica,sans-Serif" font-size="10.00">/texture_operations.h</text>
</a>
</g>
</g>
<!-- Node1&#45;&gt;Node11 -->
<g id="edge11_Node000001_Node000011" class="edge">
<title>Node1&#45;&gt;Node11</title>
<g id="a_edge11_Node000001_Node000011"><a xlink:title=" ">
<path fill="none" stroke="#63b8ff" d="M345.41,-123.5C360.08,-114.04 376.29,-103.59 390.14,-94.66"/>
<polygon fill="#63b8ff" stroke="#63b8ff" points="391.98,-97.65 398.48,-89.29 388.18,-91.76 391.98,-97.65"/>
</a>
</g>
</g>
<!-- Node12 -->
<g id="Node000012" class="node">
<title>Node12</title>
<g id="a_Node000012"><a xlink:title=" ">
<polygon fill="#e0e0e0" stroke="#999999" points="579.88,-82 495.62,-82 495.62,-62 579.88,-62 579.88,-82"/>
<text xml:space="preserve" text-anchor="middle" x="537.75" y="-68.5" font-family="Helvetica,sans-Serif" font-size="10.00">spdlog/spdlog.h</text>
</a>
</g>
</g>
<!-- Node1&#45;&gt;Node12 -->
<g id="edge12_Node000001_Node000012" class="edge">
<title>Node1&#45;&gt;Node12</title>
<g id="a_edge12_Node000001_Node000012"><a xlink:title=" ">
<path fill="none" stroke="#63b8ff" d="M360.54,-131.82C403.58,-117.53 461.19,-98.41 498.87,-85.91"/>
<polygon fill="#63b8ff" stroke="#63b8ff" points="499.58,-89.36 507.97,-82.88 497.38,-82.71 499.58,-89.36"/>
</a>
</g>
</g>
<!-- Node13 -->
<g id="Node000013" class="node">
<title>Node13</title>
<g id="a_Node000013"><a xlink:title=" ">
<polygon fill="#e0e0e0" stroke="#999999" points="699.12,-88 598.38,-88 598.38,-56 699.12,-56 699.12,-88"/>
<text xml:space="preserve" text-anchor="start" x="606.38" y="-74.5" font-family="Helvetica,sans-Serif" font-size="10.00">spdlog/sinks/stdout</text>
<text xml:space="preserve" text-anchor="middle" x="648.75" y="-62.5" font-family="Helvetica,sans-Serif" font-size="10.00">_color_sinks.h</text>
</a>
</g>
</g>
<!-- Node1&#45;&gt;Node13 -->
<g id="edge13_Node000001_Node000013" class="edge">
<title>Node1&#45;&gt;Node13</title>
<g id="a_edge13_Node000001_Node000013"><a xlink:title=" ">
<path fill="none" stroke="#63b8ff" d="M360.65,-138.75C416.07,-126.9 502.31,-108.18 586.92,-88.39"/>
<polygon fill="#63b8ff" stroke="#63b8ff" points="587.63,-91.82 596.56,-86.13 586.03,-85.01 587.63,-91.82"/>
</a>
</g>
</g>
<!-- Node2&#45;&gt;Node3 -->
<g id="edge2_Node000002_Node000003" class="edge">
<title>Node2&#45;&gt;Node3</title>
<g id="a_edge2_Node000002_Node000003"><a xlink:title=" ">
<path fill="none" stroke="#63b8ff" d="M114.5,-61.62C97.94,-52.07 72,-37.11 52.61,-25.92"/>
<polygon fill="#63b8ff" stroke="#63b8ff" points="54.61,-23.03 44.2,-21.07 51.11,-29.09 54.61,-23.03"/>
</a>
</g>
</g>
<!-- Node4 -->
<g id="Node000004" class="node">
<title>Node4</title>
<g id="a_Node000004"><a xlink:title=" ">
<polygon fill="#e0e0e0" stroke="#999999" points="111.75,-20 71.75,-20 71.75,0 111.75,0 111.75,-20"/>
<text xml:space="preserve" text-anchor="middle" x="91.75" y="-6.5" font-family="Helvetica,sans-Serif" font-size="10.00">string</text>
</a>
</g>
</g>
<!-- Node2&#45;&gt;Node4 -->
<g id="edge3_Node000002_Node000004" class="edge">
<title>Node2&#45;&gt;Node4</title>
<g id="a_edge3_Node000002_Node000004"><a xlink:title=" ">
<path fill="none" stroke="#63b8ff" d="M124.66,-61.62C119.13,-53.12 110.82,-40.33 103.93,-29.74"/>
<polygon fill="#63b8ff" stroke="#63b8ff" points="106.88,-27.86 98.5,-21.38 101.01,-31.67 106.88,-27.86"/>
</a>
</g>
</g>
<!-- Node5 -->
<g id="Node000005" class="node">
<title>Node5</title>
<g id="a_Node000005"><a xlink:title=" ">
<polygon fill="#e0e0e0" stroke="#999999" points="212.12,-20 129.38,-20 129.38,0 212.12,0 212.12,-20"/>
<text xml:space="preserve" text-anchor="middle" x="170.75" y="-6.5" font-family="Helvetica,sans-Serif" font-size="10.00">unordered_map</text>
</a>
</g>
</g>
<!-- Node2&#45;&gt;Node5 -->
<g id="edge4_Node000002_Node000005" class="edge">
<title>Node2&#45;&gt;Node5</title>
<g id="a_edge4_Node000002_Node000005"><a xlink:title=" ">
<path fill="none" stroke="#63b8ff" d="M137,-61.62C142.73,-53.03 151.37,-40.07 158.48,-29.41"/>
<polygon fill="#63b8ff" stroke="#63b8ff" points="161.2,-31.63 163.84,-21.37 155.38,-27.75 161.2,-31.63"/>
</a>
</g>
</g>
<!-- Node6 -->
<g id="Node000006" class="node">
<title>Node6</title>
<g id="a_Node000006"><a xlink:title=" ">
<polygon fill="#e0e0e0" stroke="#999999" points="273.25,-20 230.25,-20 230.25,0 273.25,0 273.25,-20"/>
<text xml:space="preserve" text-anchor="middle" x="251.75" y="-6.5" font-family="Helvetica,sans-Serif" font-size="10.00">vector</text>
</a>
</g>
</g>
<!-- Node2&#45;&gt;Node6 -->
<g id="edge5_Node000002_Node000006" class="edge">
<title>Node2&#45;&gt;Node6</title>
<g id="a_edge5_Node000002_Node000006"><a xlink:title=" ">
<path fill="none" stroke="#63b8ff" d="M149.66,-61.62C169.28,-51.89 200.22,-36.55 222.9,-25.31"/>
<polygon fill="#63b8ff" stroke="#63b8ff" points="224.22,-28.56 231.62,-20.98 221.11,-22.29 224.22,-28.56"/>
</a>
</g>
</g>
<!-- Node7 -->
<g id="Node000007" class="node">
<title>Node7</title>
<g id="a_Node000007"><a xlink:title=" ">
<polygon fill="#e0e0e0" stroke="#999999" points="388.62,-20 290.88,-20 290.88,0 388.62,0 388.62,-20"/>
<text xml:space="preserve" text-anchor="middle" x="339.75" y="-6.5" font-family="Helvetica,sans-Serif" font-size="10.00">freetype/freetype.h</text>
</a>
</g>
</g>
<!-- Node2&#45;&gt;Node7 -->
<g id="edge6_Node000002_Node000007" class="edge">
<title>Node2&#45;&gt;Node7</title>
<g id="a_edge6_Node000002_Node000007"><a xlink:title=" ">
<path fill="none" stroke="#63b8ff" d="M151.88,-61.62C156.72,-59.63 161.87,-57.64 166.75,-56 206.03,-42.78 251.41,-31.11 285.83,-22.96"/>
<polygon fill="#63b8ff" stroke="#63b8ff" points="286.19,-26.48 295.13,-20.79 284.59,-19.66 286.19,-26.48"/>
</a>
</g>
</g>
</g>
</svg>
