<?xml version="1.0" encoding="UTF-8" standalone="no"?>
<!DOCTYPE svg PUBLIC "-//W3C//DTD SVG 1.1//EN"
 "http://www.w3.org/Graphics/SVG/1.1/DTD/svg11.dtd">
<!-- Generated by graphviz version 13.1.0 (20250701.0955)
 -->
<!-- Title: C:/Users/Luke &#45; Home/source/repos/text&#45;to&#45;texture&#45;atlas/text&#45;to&#45;texture&#45;atlas/Font.hpp Pages: 1 -->
<svg width="397pt" height="120pt"
 viewBox="0.00 0.00 397.00 120.00" xmlns="http://www.w3.org/2000/svg" xmlns:xlink="http://www.w3.org/1999/xlink">
<g id="graph0" class="graph" transform="scale(1 1) rotate(0) translate(4 116)">
<title>C:/Users/Luke &#45; Home/source/repos/text&#45;to&#45;texture&#45;atlas/text&#45;to&#45;texture&#45;atlas/Font.hpp</title>
<!-- Node1 -->
<g id="Node000001" class="node">
<title>Node1</title>
<g id="a_Node000001"><a xlink:title=" ">
<polygon fill="#999999" stroke="#666666" points="228.25,-112 113.25,-112 113.25,-56 228.25,-56 228.25,-112"/>
<text xml:space="preserve" text-anchor="start" x="121.25" y="-98.5" font-family="Helvetica,sans-Serif" font-size="10.00">C:/Users/Luke &#45; Home</text>
<text xml:space="preserve" text-anchor="start" x="121.25" y="-86.5" font-family="Helvetica,sans-Serif" font-size="10.00">/source/repos/text&#45;to</text>
<text xml:space="preserve" text-anchor="start" x="121.25" y="-74.5" font-family="Helvetica,sans-Serif" font-size="10.00">&#45;texture&#45;atlas/text&#45;to</text>
<text xml:space="preserve" text-anchor="middle" x="170.75" y="-62.5" font-family="Helvetica,sans-Serif" font-size="10.00">&#45;texture&#45;atlas/Font.hpp</text>
</a>
</g>
</g>
<!-- Node2 -->
<g id="Node000002" class="node">
<title>Node2</title>
<g id="a_Node000002"><a xlink:title=" ">
<polygon fill="#e0e0e0" stroke="#999999" points="53.5,-20 0,-20 0,0 53.5,0 53.5,-20"/>
<text xml:space="preserve" text-anchor="middle" x="26.75" y="-6.5" font-family="Helvetica,sans-Serif" font-size="10.00">iostream</text>
</a>
</g>
</g>
<!-- Node1&#45;&gt;Node2 -->
<g id="edge1_Node000001_Node000002" class="edge">
<title>Node1&#45;&gt;Node2</title>
<g id="a_edge1_Node000001_Node000002"><a xlink:title=" ">
<path fill="none" stroke="#63b8ff" d="M115.9,-55.57C95.36,-45.31 72.85,-34.05 55.59,-25.42"/>
<polygon fill="#63b8ff" stroke="#63b8ff" points="57.44,-22.43 46.93,-21.09 54.31,-28.69 57.44,-22.43"/>
</a>
</g>
</g>
<!-- Node3 -->
<g id="Node000003" class="node">
<title>Node3</title>
<g id="a_Node000003"><a xlink:title=" ">
<polygon fill="#e0e0e0" stroke="#999999" points="111.75,-20 71.75,-20 71.75,0 111.75,0 111.75,-20"/>
<text xml:space="preserve" text-anchor="middle" x="91.75" y="-6.5" font-family="Helvetica,sans-Serif" font-size="10.00">string</text>
</a>
</g>
</g>
<!-- Node1&#45;&gt;Node3 -->
<g id="edge2_Node000001_Node000003" class="edge">
<title>Node1&#45;&gt;Node3</title>
<g id="a_edge2_Node000001_Node000003"><a xlink:title=" ">
<path fill="none" stroke="#63b8ff" d="M140.88,-55.78C130.66,-46.46 119.52,-36.31 110.43,-28.03"/>
<polygon fill="#63b8ff" stroke="#63b8ff" points="113.01,-25.64 103.26,-21.49 108.3,-30.82 113.01,-25.64"/>
</a>
</g>
</g>
<!-- Node4 -->
<g id="Node000004" class="node">
<title>Node4</title>
<g id="a_Node000004"><a xlink:title=" ">
<polygon fill="#e0e0e0" stroke="#999999" points="212.12,-20 129.38,-20 129.38,0 212.12,0 212.12,-20"/>
<text xml:space="preserve" text-anchor="middle" x="170.75" y="-6.5" font-family="Helvetica,sans-Serif" font-size="10.00">unordered_map</text>
</a>
</g>
</g>
<!-- Node1&#45;&gt;Node4 -->
<g id="edge3_Node000001_Node000004" class="edge">
<title>Node1&#45;&gt;Node4</title>
<g id="a_edge3_Node000001_Node000004"><a xlink:title=" ">
<path fill="none" stroke="#63b8ff" d="M170.75,-55.78C170.75,-47.82 170.75,-39.25 170.75,-31.76"/>
<polygon fill="#63b8ff" stroke="#63b8ff" points="174.25,-31.99 170.75,-21.99 167.25,-31.99 174.25,-31.99"/>
</a>
</g>
</g>
<!-- Node5 -->
<g id="Node000005" class="node">
<title>Node5</title>
<g id="a_Node000005"><a xlink:title=" ">
<polygon fill="#e0e0e0" stroke="#999999" points="273.25,-20 230.25,-20 230.25,0 273.25,0 273.25,-20"/>
<text xml:space="preserve" text-anchor="middle" x="251.75" y="-6.5" font-family="Helvetica,sans-Serif" font-size="10.00">vector</text>
</a>
</g>
</g>
<!-- Node1&#45;&gt;Node5 -->
<g id="edge4_Node000001_Node000005" class="edge">
<title>Node1&#45;&gt;Node5</title>
<g id="a_edge4_Node000001_Node000005"><a xlink:title=" ">
<path fill="none" stroke="#63b8ff" d="M201.37,-55.78C211.86,-46.46 223.28,-36.31 232.59,-28.03"/>
<polygon fill="#63b8ff" stroke="#63b8ff" points="234.81,-30.74 239.96,-21.48 230.16,-25.51 234.81,-30.74"/>
</a>
</g>
</g>
<!-- Node6 -->
<g id="Node000006" class="node">
<title>Node6</title>
<g id="a_Node000006"><a xlink:title=" ">
<polygon fill="#e0e0e0" stroke="#999999" points="388.62,-20 290.88,-20 290.88,0 388.62,0 388.62,-20"/>
<text xml:space="preserve" text-anchor="middle" x="339.75" y="-6.5" font-family="Helvetica,sans-Serif" font-size="10.00">freetype/freetype.h</text>
</a>
</g>
</g>
<!-- Node1&#45;&gt;Node6 -->
<g id="edge5_Node000001_Node000006" class="edge">
<title>Node1&#45;&gt;Node6</title>
<g id="a_edge5_Node000001_Node000006"><a xlink:title=" ">
<path fill="none" stroke="#63b8ff" d="M228.44,-58.42C254.78,-47.2 284.99,-34.33 307.29,-24.83"/>
<polygon fill="#63b8ff" stroke="#63b8ff" points="308.64,-28.06 316.47,-20.92 305.9,-21.62 308.64,-28.06"/>
</a>
</g>
</g>
</g>
</svg>
