<?xml version="1.0" encoding="UTF-8" standalone="no"?>
<!DOCTYPE svg PUBLIC "-//W3C//DTD SVG 1.1//EN"
 "http://www.w3.org/Graphics/SVG/1.1/DTD/svg11.dtd">
<!-- Generated by graphviz version 13.1.0 (20250701.0955)
 -->
<!-- Title: C:/Users/Luke &#45; Home/source/repos/text&#45;to&#45;texture&#45;atlas/text&#45;to&#45;texture&#45;atlas/main.cpp Pages: 1 -->
<svg width="397pt" height="176pt"
 viewBox="0.00 0.00 397.00 176.00" xmlns="http://www.w3.org/2000/svg" xmlns:xlink="http://www.w3.org/1999/xlink">
<g id="graph0" class="graph" transform="scale(1 1) rotate(0) translate(4 172)">
<title>C:/Users/Luke &#45; Home/source/repos/text&#45;to&#45;texture&#45;atlas/text&#45;to&#45;texture&#45;atlas/main.cpp</title>
<!-- Node1 -->
<g id="Node000001" class="node">
<title>Node1</title>
<g id="a_Node000001"><a xlink:title=" ">
<polygon fill="#999999" stroke="#666666" points="262.62,-168 146.88,-168 146.88,-112 262.62,-112 262.62,-168"/>
<text xml:space="preserve" text-anchor="start" x="154.88" y="-154.5" font-family="Helvetica,sans-Serif" font-size="10.00">C:/Users/Luke &#45; Home</text>
<text xml:space="preserve" text-anchor="start" x="154.88" y="-142.5" font-family="Helvetica,sans-Serif" font-size="10.00">/source/repos/text&#45;to</text>
<text xml:space="preserve" text-anchor="start" x="154.88" y="-130.5" font-family="Helvetica,sans-Serif" font-size="10.00">&#45;texture&#45;atlas/text&#45;to</text>
<text xml:space="preserve" text-anchor="middle" x="204.75" y="-118.5" font-family="Helvetica,sans-Serif" font-size="10.00">&#45;texture&#45;atlas/main.cpp</text>
</a>
</g>
</g>
<!-- Node2 -->
<g id="Node000002" class="node">
<title>Node2</title>
<g id="a_Node000002"><a xlink:href="_font_8hpp.html" target="_top" xlink:title=" ">
<polygon fill="white" stroke="#666666" points="197.88,-76 143.62,-76 143.62,-56 197.88,-56 197.88,-76"/>
<text xml:space="preserve" text-anchor="middle" x="170.75" y="-62.5" font-family="Helvetica,sans-Serif" font-size="10.00">Font.hpp</text>
</a>
</g>
</g>
<!-- Node1&#45;&gt;Node2 -->
<g id="edge1_Node000001_Node000002" class="edge">
<title>Node1&#45;&gt;Node2</title>
<g id="a_edge1_Node000001_Node000002"><a xlink:title=" ">
<path fill="none" stroke="#63b8ff" d="M191.9,-111.78C187.95,-103.43 183.7,-94.41 180.04,-86.67"/>
<polygon fill="#63b8ff" stroke="#63b8ff" points="183.3,-85.39 175.87,-77.84 176.97,-88.38 183.3,-85.39"/>
</a>
</g>
</g>
<!-- Node8 -->
<g id="Node000008" class="node">
<title>Node8</title>
<g id="a_Node000008"><a xlink:title=" ">
<polygon fill="#e0e0e0" stroke="#999999" points="261.38,-76 216.12,-76 216.12,-56 261.38,-56 261.38,-76"/>
<text xml:space="preserve" text-anchor="middle" x="238.75" y="-62.5" font-family="Helvetica,sans-Serif" font-size="10.00">chrono</text>
</a>
</g>
</g>
<!-- Node1&#45;&gt;Node8 -->
<g id="edge7_Node000001_Node000008" class="edge">
<title>Node1&#45;&gt;Node8</title>
<g id="a_edge7_Node000001_Node000008"><a xlink:title=" ">
<path fill="none" stroke="#63b8ff" d="M217.6,-111.78C221.55,-103.43 225.8,-94.41 229.46,-86.67"/>
<polygon fill="#63b8ff" stroke="#63b8ff" points="232.53,-88.38 233.63,-77.84 226.2,-85.39 232.53,-88.38"/>
</a>
</g>
</g>
<!-- Node3 -->
<g id="Node000003" class="node">
<title>Node3</title>
<g id="a_Node000003"><a xlink:title=" ">
<polygon fill="#e0e0e0" stroke="#999999" points="53.5,-20 0,-20 0,0 53.5,0 53.5,-20"/>
<text xml:space="preserve" text-anchor="middle" x="26.75" y="-6.5" font-family="Helvetica,sans-Serif" font-size="10.00">iostream</text>
</a>
</g>
</g>
<!-- Node2&#45;&gt;Node3 -->
<g id="edge2_Node000002_Node000003" class="edge">
<title>Node2&#45;&gt;Node3</title>
<g id="a_edge2_Node000002_Node000003"><a xlink:title=" ">
<path fill="none" stroke="#63b8ff" d="M145.67,-55.59C122.68,-46.97 88.4,-34.12 62.54,-24.42"/>
<polygon fill="#63b8ff" stroke="#63b8ff" points="64.04,-21.25 53.45,-21.01 61.58,-27.8 64.04,-21.25"/>
</a>
</g>
</g>
<!-- Node4 -->
<g id="Node000004" class="node">
<title>Node4</title>
<g id="a_Node000004"><a xlink:title=" ">
<polygon fill="#e0e0e0" stroke="#999999" points="111.75,-20 71.75,-20 71.75,0 111.75,0 111.75,-20"/>
<text xml:space="preserve" text-anchor="middle" x="91.75" y="-6.5" font-family="Helvetica,sans-Serif" font-size="10.00">string</text>
</a>
</g>
</g>
<!-- Node2&#45;&gt;Node4 -->
<g id="edge3_Node000002_Node000004" class="edge">
<title>Node2&#45;&gt;Node4</title>
<g id="a_edge3_Node000002_Node000004"><a xlink:title=" ">
<path fill="none" stroke="#63b8ff" d="M156.99,-55.59C145.39,-47.67 128.55,-36.16 114.89,-26.82"/>
<polygon fill="#63b8ff" stroke="#63b8ff" points="117.1,-24.09 106.87,-21.33 113.15,-29.87 117.1,-24.09"/>
</a>
</g>
</g>
<!-- Node5 -->
<g id="Node000005" class="node">
<title>Node5</title>
<g id="a_Node000005"><a xlink:title=" ">
<polygon fill="#e0e0e0" stroke="#999999" points="212.12,-20 129.38,-20 129.38,0 212.12,0 212.12,-20"/>
<text xml:space="preserve" text-anchor="middle" x="170.75" y="-6.5" font-family="Helvetica,sans-Serif" font-size="10.00">unordered_map</text>
</a>
</g>
</g>
<!-- Node2&#45;&gt;Node5 -->
<g id="edge4_Node000002_Node000005" class="edge">
<title>Node2&#45;&gt;Node5</title>
<g id="a_edge4_Node000002_Node000005"><a xlink:title=" ">
<path fill="none" stroke="#63b8ff" d="M170.75,-55.59C170.75,-49.01 170.75,-39.96 170.75,-31.73"/>
<polygon fill="#63b8ff" stroke="#63b8ff" points="174.25,-31.81 170.75,-21.81 167.25,-31.81 174.25,-31.81"/>
</a>
</g>
</g>
<!-- Node6 -->
<g id="Node000006" class="node">
<title>Node6</title>
<g id="a_Node000006"><a xlink:title=" ">
<polygon fill="#e0e0e0" stroke="#999999" points="273.25,-20 230.25,-20 230.25,0 273.25,0 273.25,-20"/>
<text xml:space="preserve" text-anchor="middle" x="251.75" y="-6.5" font-family="Helvetica,sans-Serif" font-size="10.00">vector</text>
</a>
</g>
</g>
<!-- Node2&#45;&gt;Node6 -->
<g id="edge5_Node000002_Node000006" class="edge">
<title>Node2&#45;&gt;Node6</title>
<g id="a_edge5_Node000002_Node000006"><a xlink:title=" ">
<path fill="none" stroke="#63b8ff" d="M184.86,-55.59C196.75,-47.67 214.02,-36.16 228.03,-26.82"/>
<polygon fill="#63b8ff" stroke="#63b8ff" points="229.89,-29.78 236.27,-21.32 226.01,-23.95 229.89,-29.78"/>
</a>
</g>
</g>
<!-- Node7 -->
<g id="Node000007" class="node">
<title>Node7</title>
<g id="a_Node000007"><a xlink:title=" ">
<polygon fill="#e0e0e0" stroke="#999999" points="388.62,-20 290.88,-20 290.88,0 388.62,0 388.62,-20"/>
<text xml:space="preserve" text-anchor="middle" x="339.75" y="-6.5" font-family="Helvetica,sans-Serif" font-size="10.00">freetype/freetype.h</text>
</a>
</g>
</g>
<!-- Node2&#45;&gt;Node7 -->
<g id="edge6_Node000002_Node000007" class="edge">
<title>Node2&#45;&gt;Node7</title>
<g id="a_edge6_Node000002_Node000007"><a xlink:title=" ">
<path fill="none" stroke="#63b8ff" d="M198.28,-56.2C225.69,-47.45 268.06,-33.91 299.29,-23.93"/>
<polygon fill="#63b8ff" stroke="#63b8ff" points="300.34,-27.27 308.8,-20.89 298.21,-20.6 300.34,-27.27"/>
</a>
</g>
</g>
</g>
</svg>
